<?xml version="1.0" encoding="utf-8"?>
<svg xmlns="http://www.w3.org/2000/svg" style="margin: auto; background: rgb(241, 242, 243); display: block; shape-rendering: auto;" width="280" height="250" preserveAspectRatio="xMidYMid">
<style type="text/css">
  text {
    text-anchor: middle; font-size: 63px; opacity: 0;
  }
</style>
<g style="transform-origin: 140px 125px; transform: scale(0.7875);">
<g transform="translate(140,125)">
  <g transform="translate(0,0)"><g class="path" style="transform: scale(0.91); transform-origin: -110.28px 2.29973px; animation: 1s linear -0.586667s infinite normal forwards running breath-cf80ab20-ac39-4a51-ab4e-0c5884f0de0c;"><path d="M24.72 15.52L24.72 15.52L24.72 15.52Q33.12 15.52 37.80 12.08L37.80 12.08L37.80 12.08Q42.48 8.64 42.48 2.96L42.48 2.96L42.48 2.96Q42.48-1.12 40.44-4.24L40.44-4.24L40.44-4.24Q38.40-7.36 35.36-9.40L35.36-9.40L35.36-9.40Q32.32-11.44 29.16-13.44L29.16-13.44L29.16-13.44Q26-15.44 23.28-18.48L23.28-18.48L23.28-18.48Q20.56-21.52 19.68-25.36L19.68-25.36L19.68-25.36Q12.40-27.52 10.08-34.40L10.08-34.40L10.08-34.40Q9.20-37.04 9.20-39.92L9.20-39.92L9.20-39.92Q9.20-42.80 10.08-45.92L10.08-45.92L10.08-45.92Q11.92-52.08 16.08-55.20L16.08-55.20L16.96-53.92L16.96-53.92Q13.20-51.20 11.52-45.44L11.52-45.44L11.52-45.44Q10.72-42.56 10.72-39.92L10.72-39.92L10.72-39.92Q10.72-37.28 11.52-34.88L11.52-34.88L11.52-34.88Q13.44-29.04 19.44-27.04L19.44-27.04L19.44-27.04Q19.28-27.92 19.28-29.76L19.28-29.76L19.28-29.76Q19.28-40.24 26.88-46.72L26.88-46.72L26.88-46.72Q34.48-53.20 45.44-53.20L45.44-53.20L45.44-53.20Q52.64-53.20 56.96-49.28L56.96-49.28L56.96-49.28Q60.64-45.84 60.64-40.84L60.64-40.84L60.64-40.84Q60.64-35.84 57.28-32.20L57.28-32.20L57.28-32.20Q53.92-28.56 48.24-28.56L48.24-28.56L48.24-28.56Q45.12-28.56 43.12-29.76L43.12-29.76L43.12-29.76Q39.04-26.64 33.44-25.28L33.44-25.28L33.44-25.28Q35.04-23.76 40.92-19.68L40.92-19.68L40.92-19.68Q46.80-15.60 49.72-11.88L49.72-11.88L49.72-11.88Q52.64-8.16 52.64-3.20L52.64-3.20L52.64-3.20Q52.64 5.92 45.56 11.60L45.56 11.60L45.56 11.60Q38.48 17.28 27.64 17.28L27.64 17.28L27.64 17.28Q16.80 17.28 11.28 12.48L11.28 12.48L11.28 12.48Q6.48 8.40 6.48 2.52L6.48 2.52L6.48 2.52Q6.48-3.36 10.28-7.56L10.28-7.56L10.28-7.56Q14.08-11.76 19.76-11.76L19.76-11.76L19.76-11.76Q25.44-11.76 28.16-9.24L28.16-9.24L28.16-9.24Q30.88-6.72 30.88-3.12L30.88-3.12L30.88-3.12Q30.88 0.48 28.68 3.28L28.68 3.28L28.68 3.28Q26.48 6.08 22.96 6.08L22.96 6.08L22.96 6.08Q19.44 6.08 17.36 3.84L17.36 3.84L17.36 3.84Q15.44 1.92 15.20-0.96L15.20-0.96L15.20-0.96Q15.12-1.76 15.20-1.92L15.20-1.92L16.72-1.84L16.72-1.84Q16.64 0.96 18.48 2.80L18.48 2.80L18.48 2.80Q20 4.48 22.92 4.48L22.92 4.48L22.92 4.48Q25.84 4.48 27.60 2.20L27.60 2.20L27.60 2.20Q29.36-0.08 29.36-3.08L29.36-3.08L29.36-3.08Q29.36-6.08 27.28-7.92L27.28-7.92L27.28-7.92Q24.96-10.24 19.84-10.24L19.84-10.24L19.84-10.24Q14.72-10.24 11.36-6.52L11.36-6.52L11.36-6.52Q8-2.80 8 2.44L8 2.44L8 2.44Q8 7.68 12.32 11.36L12.32 11.36L12.32 11.36Q14.88 13.60 17.56 14.56L17.56 14.56L17.56 14.56Q20.24 15.52 24.72 15.52zM38.32-39.52L38.32-39.52L38.32-39.52Q38.32-43.04 40.12-45.36L40.12-45.36L40.12-45.36Q41.92-47.68 45.04-47.68L45.04-47.68L45.04-47.68Q50.40-47.68 50.40-41.80L50.40-41.80L50.40-41.80Q50.40-35.92 44.56-30.72L44.56-30.72L44.56-30.72Q46.32-29.92 48.24-29.92L48.24-29.92L48.24-29.92Q53.20-29.92 56.16-33.16L56.16-33.16L56.16-33.16Q59.12-36.40 59.12-40.76L59.12-40.76L59.12-40.76Q59.12-45.12 55.92-48.16L55.92-48.16L55.92-48.16Q52-51.68 45.60-51.68L45.60-51.68L45.60-51.68Q39.20-51.68 34.72-48.56L34.72-48.56L34.72-48.56Q27.76-43.60 27.76-35.76L27.76-35.76L27.76-35.76Q27.76-29.28 32.08-26.32L32.08-26.32L32.08-26.32Q37.44-27.52 42-30.64L42-30.64L42-30.64Q38.32-33.92 38.32-39.52zM44.96-46.24L44.96-46.24L44.96-46.24Q42.56-46.24 41.24-44.40L41.24-44.40L41.24-44.40Q39.92-42.56 39.92-39.52L39.92-39.52L39.92-39.52Q39.92-34.32 43.20-31.60L43.20-31.60L43.20-31.60Q45.60-33.28 47.20-36.16L47.20-36.16L47.20-36.16Q48.80-39.04 48.80-41.84L48.80-41.84L48.80-41.84Q48.80-46.24 44.96-46.24" fill="#93dbe9" stroke="none" stroke-width="none" transform="translate(-143.84002685546875,21.259732225206164)" style="fill: rgb(147, 219, 233);"></path></g><g class="path" style="transform: scale(0.91); transform-origin: -65.04px 6.05973px; animation: 1s linear -0.513333s infinite normal forwards running breath-cf80ab20-ac39-4a51-ab4e-0c5884f0de0c;"><path d="M89.76 0.72L89.76 0.72L89.76 0.72Q82.72 0.72 82.08-5.44L82.08-5.44L82.08-5.44Q78.56 0.72 73.20 0.72L73.20 0.72L73.20 0.72Q67.84 0.72 64.68-2.52L64.68-2.52L64.68-2.52Q61.52-5.76 61.52-11.60L61.52-11.60L61.52-11.60Q61.52-20.72 66-25.92L66-25.92L66-25.92Q70.48-31.12 77.60-31.12L77.60-31.12L77.60-31.12Q83.44-31.12 85.36-25.60L85.36-25.60L85.36-25.60Q85.76-28 86.24-30.40L86.24-30.40L86.24-30.40Q92.16-30.40 95.04-30.88L95.04-30.88L96.08-31.12L90.56-0.88L90.56-0.88Q92.96-1.12 94.56-3.12L94.56-3.12L95.76-2.16L95.76-2.16Q93.36 0.72 89.76 0.72zM70.56-7.52L70.56-7.52Q70.56-3.92 71.48-2.52L71.48-2.52L71.48-2.52Q72.40-1.12 74.32-1.12L74.32-1.12L74.32-1.12Q76.24-1.12 78.24-3.20L78.24-3.20L78.24-3.20Q80.88-5.92 82.48-10.08L82.48-10.08L82.48-10.08Q82.72-11.12 83.40-15.08L83.40-15.08L83.40-15.08Q84.08-19.04 84.56-21.60L84.56-21.60L84.56-21.60Q84.32-24.64 82.88-26.88L82.88-26.88L82.88-26.88Q81.44-29.12 79.28-29.12L79.28-29.12L79.28-29.12Q75.36-29.12 72.96-22.12L72.96-22.12L72.96-22.12Q70.56-15.12 70.56-7.52L70.56-7.52" fill="#93dbe9" stroke="none" stroke-width="none" transform="translate(-143.84002685546875,21.259732225206164)" style="fill: rgb(104, 156, 197);"></path></g><g class="path" style="transform: scale(0.91); transform-origin: -27.28px 11.3397px; animation: 1s linear -0.44s infinite normal forwards running breath-cf80ab20-ac39-4a51-ab4e-0c5884f0de0c;"><path d="M116.24 0.64L116.24 0.64L116.24 0.64Q112.56 0.64 110.40-1.04L110.40-1.04L108.00 11.84L98.48 11.84L106.00-30.08L106.00-30.08Q103.60-29.84 102.00-27.84L102.00-27.84L100.80-28.80L100.80-28.80Q103.20-31.68 106.76-31.68L106.76-31.68L106.76-31.68Q110.32-31.68 112.32-29.96L112.32-29.96L112.32-29.96Q114.32-28.24 114.48-25.12L114.48-25.12L114.48-25.12Q118.00-31.12 123.44-31.12L123.44-31.12L123.44-31.12Q128.88-31.12 131.76-28.04L131.76-28.04L131.76-28.04Q134.64-24.96 134.64-19.60L134.64-19.60L134.64-19.60Q134.64-10.16 129.52-4.76L129.52-4.76L129.52-4.76Q124.40 0.64 116.24 0.64zM113.84-19.92L110.96-4.24L110.96-4.24Q112.32-1.20 116.12-1.20L116.12-1.20L116.12-1.20Q119.92-1.20 122.76-7.60L122.76-7.60L122.76-7.60Q125.60-14 125.60-22.88L125.60-22.88L125.60-22.88Q125.60-26.56 124.84-27.92L124.84-27.92L124.84-27.92Q124.08-29.28 122.08-29.28L122.08-29.28L122.08-29.28Q120.08-29.28 117.96-26.88L117.96-26.88L117.96-26.88Q115.84-24.48 114.88-22.36L114.88-22.36L114.88-22.36Q113.92-20.24 113.92-19.92L113.92-19.92L113.84-19.92" fill="#93dbe9" stroke="none" stroke-width="none" transform="translate(-143.84002685546875,21.259732225206164)" style="fill: rgb(94, 111, 163);"></path></g><g class="path" style="transform: scale(0.91); transform-origin: 11.04px 11.3397px; animation: 1s linear -0.366667s infinite normal forwards running breath-cf80ab20-ac39-4a51-ab4e-0c5884f0de0c;"><path d="M154.56 0.64L154.56 0.64L154.56 0.64Q150.88 0.64 148.72-1.04L148.72-1.04L146.32 11.84L136.80 11.84L144.32-30.08L144.32-30.08Q141.92-29.84 140.32-27.84L140.32-27.84L139.12-28.80L139.12-28.80Q141.52-31.68 145.08-31.68L145.08-31.68L145.08-31.68Q148.64-31.68 150.64-29.96L150.64-29.96L150.64-29.96Q152.64-28.24 152.80-25.12L152.80-25.12L152.80-25.12Q156.32-31.12 161.76-31.12L161.76-31.12L161.76-31.12Q167.20-31.12 170.08-28.04L170.08-28.04L170.08-28.04Q172.96-24.96 172.96-19.60L172.96-19.60L172.96-19.60Q172.96-10.16 167.84-4.76L167.84-4.76L167.84-4.76Q162.72 0.64 154.56 0.64zM152.16-19.92L149.28-4.24L149.28-4.24Q150.64-1.20 154.44-1.20L154.44-1.20L154.44-1.20Q158.24-1.20 161.08-7.60L161.08-7.60L161.08-7.60Q163.92-14 163.92-22.88L163.92-22.88L163.92-22.88Q163.92-26.56 163.16-27.92L163.16-27.92L163.16-27.92Q162.40-29.28 160.40-29.28L160.40-29.28L160.40-29.28Q158.40-29.28 156.28-26.88L156.28-26.88L156.28-26.88Q154.16-24.48 153.20-22.36L153.20-22.36L153.20-22.36Q152.24-20.24 152.24-19.92L152.24-19.92L152.16-19.92" fill="#93dbe9" stroke="none" stroke-width="none" transform="translate(-143.84002685546875,21.259732225206164)" style="fill: rgb(59, 67, 104);"></path></g><g class="path" style="transform: scale(0.91); transform-origin: 50.24px -4.30027px; animation: 1s linear -0.293333s infinite normal forwards running breath-cf80ab20-ac39-4a51-ab4e-0c5884f0de0c;"><path d="M206.88-0.88L206.88-0.88L206.88-0.88Q208.80-0.88 210.88-3.12L210.88-3.12L212.08-2.16L212.08-2.16Q211.52-1.04 209.60-0.16L209.60-0.16L209.60-0.16Q207.68 0.72 205.36 0.72L205.36 0.72L205.36 0.72Q198.08 0.72 198.08-5.84L198.08-5.84L198.08-5.84Q198.08-8.64 199.52-15.84L199.52-15.84L199.52-15.84Q200.96-23.04 200.96-25.28L200.96-25.28L200.96-25.28Q200.96-28.72 197.68-28.72L197.68-28.72L197.68-28.72Q194.96-28.72 192.44-25.04L192.44-25.04L192.44-25.04Q189.92-21.36 188.32-15.04L188.32-15.04L185.68 0L176.08 0L184.96-50.24L184.96-50.24Q182.56-50 180.96-48L180.96-48L179.76-48.96L179.76-48.96Q182.16-51.84 185.80-51.84L185.80-51.84L185.80-51.84Q189.44-51.84 191.44-50L191.44-50L191.44-50Q193.44-48.16 193.44-44.80L193.44-44.80L193.44-44.80Q193.44-44.16 193.28-42.72L193.28-42.72L189.92-23.76L189.92-23.76Q193.20-31.12 200.08-31.12L200.08-31.12L200.08-31.12Q204.80-31.12 207.44-28.44L207.44-28.44L207.44-28.44Q210.08-25.76 210.08-21.04L210.08-21.04L210.08-21.04Q210.08-18.56 208.56-11.48L208.56-11.48L208.56-11.48Q207.04-4.40 206.88-0.88" fill="#93dbe9" stroke="none" stroke-width="none" transform="translate(-143.84002685546875,21.259732225206164)" style="fill: rgb(25, 29, 58);"></path></g><g class="path" style="transform: scale(0.91); transform-origin: 80.12px 6.05973px; animation: 1s linear -0.22s infinite normal forwards running breath-cf80ab20-ac39-4a51-ab4e-0c5884f0de0c;"><path d="M230.64-2.16L230.64-2.16Q228.24 0.72 224.64 0.72L224.64 0.72L224.64 0.72Q221.04 0.72 219-1.12L219-1.12L219-1.12Q216.96-2.96 216.96-5.92L216.96-5.92L216.96-5.92Q216.96-6.96 218.24-14.64L218.24-14.64L220.88-28.96L217.52-28.96L217.68-30.40L221.12-30.40L221.12-30.40Q227.04-30.40 229.84-30.88L229.84-30.88L230.96-31.12L225.44-0.88L225.44-0.88Q227.84-1.12 229.44-3.12L229.44-3.12L230.64-2.16" fill="#93dbe9" stroke="none" stroke-width="none" transform="translate(-143.84002685546875,21.259732225206164)" style="fill: rgb(217, 219, 238);"></path></g><g class="path" style="transform: scale(0.91); transform-origin: 83.88px -21.6603px; animation: 1s linear -0.146667s infinite normal forwards running breath-cf80ab20-ac39-4a51-ab4e-0c5884f0de0c;"><path d="M223.60-38.80L223.60-38.80L223.60-38.80Q221.92-40.48 221.92-42.88L221.92-42.88L221.92-42.88Q221.92-45.28 223.60-47L223.60-47L223.60-47Q225.28-48.72 227.68-48.72L227.68-48.72L227.68-48.72Q230.08-48.72 231.80-47L231.80-47L231.80-47Q233.52-45.28 233.52-42.88L233.52-42.88L233.52-42.88Q233.52-40.48 231.80-38.80L231.80-38.80L231.80-38.80Q230.08-37.12 227.68-37.12L227.68-37.12L227.68-37.12Q225.28-37.12 223.60-38.80" fill="#93dbe9" stroke="none" stroke-width="none" transform="translate(-143.84002685546875,21.259732225206164)" style="fill: rgb(179, 183, 226);"></path></g><g class="path" style="transform: scale(0.91); transform-origin: 106.4px 5.69973px; animation: 1s linear -0.0733333s infinite normal forwards running breath-cf80ab20-ac39-4a51-ab4e-0c5884f0de0c;"><path d="M236.88-27.28L235.68-28.24L235.68-28.24Q238.08-31.12 241.72-31.12L241.72-31.12L241.72-31.12Q245.36-31.12 247.36-29.28L247.36-29.28L247.36-29.28Q249.36-27.44 249.36-24.08L249.36-24.08L249.36-23.60L249.36-23.60Q252.96-31.12 258.72-31.12L258.72-31.12L258.72-31.12Q264.88-31.12 264.88-24.72L264.88-24.72L264.88-24.72Q264.88-22.08 263.12-19.12L263.12-19.12L263.12-19.12Q261.36-16.16 259.60-13.48L259.60-13.48L259.60-13.48Q257.84-10.80 257.84-8.72L257.84-8.72L255.92-8.72L255.92-8.72Q255.92-11.68 259.36-16.72L259.36-16.72L259.36-16.72Q262.80-21.76 262.80-24.52L262.80-24.52L262.80-24.52Q262.80-27.28 261.72-28.28L261.72-28.28L261.72-28.28Q260.64-29.28 258.52-29.28L258.52-29.28L258.52-29.28Q256.40-29.28 254.36-27.44L254.36-27.44L254.36-27.44Q252.32-25.60 250.96-22.80L250.96-22.80L250.96-22.80Q248.80-18.64 248.08-16L248.08-16L248.08-15.92L245.20 0L235.60 0L240.88-29.52L240.88-29.52Q238.48-29.28 236.88-27.28L236.88-27.28" fill="#93dbe9" stroke="none" stroke-width="none" transform="translate(-143.84002685546875,21.259732225206164)" style="fill: rgb(147, 219, 233);"></path></g><g class="path" style="transform: scale(0.91); transform-origin: 136.48px 6.05973px; animation: 1s linear 0s infinite normal forwards running breath-cf80ab20-ac39-4a51-ab4e-0c5884f0de0c;"><path d="M283.84-31.12L283.84-31.12L283.84-31.12Q294.00-31.12 294.00-23.04L294.00-23.04L294.00-23.04Q294.00-18 289.24-15.40L289.24-15.40L289.24-15.40Q284.48-12.80 275.68-12.72L275.68-12.72L275.68-12.72Q275.52-9.84 275.52-8.16L275.52-8.16L275.52-8.16Q275.52-4.56 277.16-2.84L277.16-2.84L277.16-2.84Q278.80-1.12 281.28-1.12L281.28-1.12L281.28-1.12Q283.76-1.12 285.80-2.08L285.80-2.08L285.80-2.08Q287.84-3.04 289.04-4.36L289.04-4.36L289.04-4.36Q290.24-5.68 291.12-7.12L291.12-7.12L291.12-7.12Q292.72-9.76 292.72-10.48L292.72-10.48L294.16-9.84L294.16-9.84Q293.92-8.56 292.72-6.44L292.72-6.44L292.72-6.44Q291.52-4.32 290.08-2.96L290.08-2.96L290.08-2.96Q288.64-1.60 285.84-0.44L285.84-0.44L285.84-0.44Q283.04 0.72 279.60 0.72L279.60 0.72L279.60 0.72Q273.12 0.72 269.80-2.36L269.80-2.36L269.80-2.36Q266.48-5.44 266.48-10.80L266.48-10.80L266.48-10.80Q266.48-20.32 271.20-25.72L271.20-25.72L271.20-25.72Q275.92-31.12 283.84-31.12zM292.00-23.04L292.00-23.04Q292.00-25.68 290.44-27.40L290.44-27.40L290.44-27.40Q288.88-29.12 285.80-29.12L285.80-29.12L285.80-29.12Q282.72-29.12 279.80-25.44L279.80-25.44L279.80-25.44Q276.88-21.76 275.92-14.56L275.92-14.56L275.92-14.56Q292.00-14.64 292.00-23.04L292.00-23.04" fill="#93dbe9" stroke="none" stroke-width="none" transform="translate(-143.84002685546875,21.259732225206164)" style="fill: rgb(104, 156, 197);"></path></g></g>
</g>
</g>
<style id="breath-cf80ab20-ac39-4a51-ab4e-0c5884f0de0c" data-anikit="">@keyframes breath-cf80ab20-ac39-4a51-ab4e-0c5884f0de0c
{
  0% {
    animation-timing-function: cubic-bezier(0.9647,0.2413,-0.0705,0.7911);
    transform: scale(0.9099999999999999);
  }
  51% {
    animation-timing-function: cubic-bezier(0.9226,0.2631,-0.0308,0.7628);
    transform: scale(1.02994);
  }
  100% {
    transform: scale(0.9099999999999999);
  }
}</style></svg>